<svg width="374" height="156" viewBox="0 0 374 156" fill="none" xmlns="http://www.w3.org/2000/svg">
<path d="M309.465 16.9901C309.467 17.5833 309.267 18.1635 308.891 18.6574C308.515 19.1514 307.979 19.5367 307.352 19.7648C306.725 19.9928 306.034 20.0533 305.368 19.9385C304.701 19.8237 304.088 19.5389 303.607 19.12C303.126 18.7011 302.798 18.167 302.665 17.5854C302.532 17.0038 302.6 16.4007 302.859 15.8526C303.119 15.3044 303.559 14.8359 304.124 14.5062C304.688 14.1765 305.352 14.0005 306.032 14.0005C306.941 14.0005 307.813 14.3152 308.456 14.8757C309.1 15.4361 309.463 16.1965 309.465 16.9901Z" fill="#60D290"/>
<path d="M225.832 21.2127C225.83 21.8036 225.628 22.3809 225.25 22.8715C224.873 23.3621 224.337 23.7441 223.712 23.9692C223.086 24.1943 222.397 24.2524 221.734 24.1362C221.07 24.02 220.461 23.7346 219.983 23.3162C219.505 22.8978 219.179 22.3651 219.048 21.7854C218.916 21.2057 218.985 20.6049 219.244 20.0591C219.504 19.5133 219.943 19.0468 220.506 18.7186C221.069 18.3905 221.73 18.2153 222.407 18.2153C222.858 18.2153 223.304 18.2929 223.72 18.4436C224.136 18.5944 224.514 18.8153 224.832 19.0937C225.15 19.3721 225.402 19.7026 225.573 20.0662C225.745 20.4298 225.833 20.8194 225.832 21.2127Z" fill="#60D290"/>
<path d="M182.082 59.7543C182.083 60.3474 181.884 60.9277 181.507 61.4216C181.131 61.9155 180.596 62.3009 179.968 62.529C179.341 62.757 178.651 62.8175 177.984 62.7027C177.318 62.5879 176.705 62.303 176.224 61.8842C175.743 61.4653 175.415 60.9312 175.282 60.3496C175.149 59.7679 175.216 59.1649 175.476 58.6168C175.735 58.0686 176.175 57.6 176.74 57.2703C177.305 56.9407 177.969 56.7647 178.648 56.7647C179.099 56.7636 179.545 56.8402 179.962 56.99C180.378 57.1398 180.757 57.3599 181.076 57.6376C181.395 57.9153 181.648 58.2452 181.82 58.6084C181.993 58.9716 182.082 59.361 182.082 59.7543Z" fill="#60D290"/>
<path d="M10.057 153.01C10.057 153.601 9.85616 154.179 9.47988 154.671C9.1036 155.163 8.56877 155.546 7.94304 155.772C7.31731 155.998 6.62877 156.058 5.96449 155.942C5.30022 155.827 4.69004 155.542 4.21113 155.124C3.73221 154.706 3.40606 154.173 3.27393 153.593C3.1418 153.013 3.20961 152.412 3.4688 151.866C3.72799 151.32 4.16691 150.853 4.73005 150.524C5.2932 150.196 5.95527 150.021 6.63256 150.021C7.54006 150.023 8.40973 150.338 9.05143 150.898C9.69313 151.459 10.0547 152.218 10.057 153.01Z" fill="#60D290"/>
<path d="M70.5229 2.98963C70.5229 3.58092 70.322 4.15893 69.9458 4.65058C69.5695 5.14222 69.0347 5.52541 68.4089 5.75168C67.7832 5.97796 67.0946 6.03717 66.4304 5.92181C65.7661 5.80645 65.1559 5.52172 64.677 5.10361C64.1981 4.68551 63.8719 4.15281 63.7398 3.57288C63.6077 2.99294 63.6755 2.39183 63.9347 1.84555C64.1939 1.29926 64.6328 0.832349 65.1959 0.503845C65.7591 0.17534 66.4212 0 67.0984 0C68.0059 0.00203409 68.8756 0.317666 69.5173 0.87789C70.159 1.43811 70.5205 2.19735 70.5229 2.98963Z" fill="#60D290"/>
<path d="M374 152.232C374.002 152.826 373.802 153.406 373.425 153.9C373.048 154.395 372.512 154.78 371.885 155.008C371.257 155.236 370.566 155.296 369.899 155.18C369.232 155.065 368.62 154.779 368.139 154.359C367.658 153.94 367.331 153.405 367.199 152.823C367.067 152.241 367.136 151.637 367.396 151.089C367.657 150.541 368.099 150.073 368.665 149.745C369.231 149.416 369.896 149.241 370.576 149.243C371.483 149.245 372.353 149.56 372.994 150.121C373.636 150.681 373.998 151.44 374 152.232Z" fill="#60D290"/>
<path d="M270.658 80.2577C268.877 80.2592 267.136 79.7996 265.654 78.9369C264.173 78.0743 263.017 76.8473 262.335 75.4114C261.652 73.9754 261.472 72.3949 261.819 70.8698C262.165 69.3448 263.022 67.9437 264.28 66.8437C265.539 65.7438 267.143 64.9945 268.89 64.6906C270.636 64.3868 272.447 64.542 274.092 65.1366C275.738 65.7312 277.144 66.7386 278.134 68.0312C279.123 69.3238 279.652 70.8436 279.652 72.3984C279.647 74.4802 278.698 76.4758 277.013 77.9486C275.327 79.4214 273.043 80.2516 270.658 80.2577ZM270.658 65.7873C269.16 65.7873 267.696 66.175 266.451 66.9015C265.206 67.6279 264.235 68.6604 263.662 69.8684C263.089 71.0765 262.939 72.4057 263.231 73.6882C263.523 74.9706 264.244 76.1486 265.303 77.0731C266.362 77.9977 267.712 78.6274 269.181 78.8824C270.65 79.1375 272.172 79.0066 273.556 78.5062C274.94 78.0059 276.122 77.1585 276.954 76.0713C277.787 74.9841 278.231 73.7059 278.231 72.3984C278.232 71.5292 278.037 70.6683 277.657 69.8649C277.277 69.0615 276.72 68.3313 276.016 67.7159C275.313 67.1006 274.478 66.6122 273.559 66.2787C272.639 65.9451 271.654 65.7729 270.658 65.7719V65.7873Z" fill="#60D290"/>
<path d="M4.00238 39.3197C2.22188 39.3197 0.48136 38.8588 -0.999073 37.9952C-2.47951 37.1316 -3.63336 35.9041 -4.31473 34.468C-4.9961 33.0319 -5.17438 31.4517 -4.82702 29.9271C-4.47966 28.4026 -3.62227 27.0022 -2.36326 25.903C-1.10426 24.8039 0.499813 24.0553 2.2461 23.7521C3.99239 23.4488 5.80247 23.6045 7.44744 24.1993C9.09241 24.7942 10.4984 25.8015 11.4876 27.094C12.4768 28.3865 13.0048 29.906 13.0048 31.4604C13.0024 33.5442 12.0532 35.5421 10.3654 37.0155C8.67767 38.489 6.38924 39.3177 4.00238 39.3197ZM4.00238 24.8493C2.50466 24.8493 1.04058 25.2371 -0.204724 25.9635C-1.45003 26.6899 -2.42063 27.7224 -2.99378 28.9305C-3.56693 30.1385 -3.71689 31.4677 -3.4247 32.7502C-3.13251 34.0326 -2.41129 35.2106 -1.35225 36.1352C-0.293202 37.0597 1.0561 37.6894 2.52504 37.9445C3.99398 38.1996 5.51657 38.0686 6.90028 37.5683C8.28399 37.0679 9.46667 36.2205 10.2988 35.1333C11.1308 34.0461 11.575 32.768 11.575 31.4604C11.5726 29.7077 10.7741 28.0273 9.35443 26.7879C7.9348 25.5485 6.01004 24.8514 4.00238 24.8493Z" fill="#60D290"/>
<path d="M364.23 58.7138C362.449 58.7153 360.707 58.2557 359.226 57.393C357.744 56.5303 356.589 55.3034 355.906 53.8674C355.224 52.4315 355.044 50.851 355.39 49.3259C355.737 47.8008 356.593 46.3997 357.852 45.2998C359.111 44.1999 360.715 43.4506 362.461 43.1467C364.208 42.8428 366.018 42.998 367.664 43.5926C369.309 44.1873 370.716 45.1946 371.705 46.4872C372.695 47.7799 373.223 49.2997 373.223 50.8544C373.221 52.9369 372.273 54.9336 370.587 56.4069C368.901 57.8801 366.615 58.7097 364.23 58.7138ZM364.23 44.2434C362.729 44.2418 361.262 44.6289 360.014 45.3556C358.766 46.0823 357.793 47.1159 357.218 48.3257C356.643 49.5354 356.492 50.8669 356.785 52.1515C357.077 53.4362 357.799 54.6162 358.86 55.5423C359.921 56.4685 361.273 57.099 362.744 57.3541C364.215 57.6093 365.741 57.4776 367.126 56.9756C368.512 56.4737 369.696 55.6242 370.528 54.5345C371.361 53.4449 371.804 52.1642 371.802 50.8544C371.8 49.1017 371.001 47.4213 369.582 46.182C368.162 44.9426 366.237 44.2454 364.23 44.2434Z" fill="#60D290"/>
<path d="M139.356 32.7011C137.574 32.7026 135.833 32.2428 134.351 31.3798C132.869 30.5167 131.714 29.2894 131.032 27.8529C130.349 26.4165 130.17 24.8356 130.517 23.3104C130.864 21.7851 131.722 20.384 132.981 19.2844C134.241 18.1848 135.846 17.4361 137.593 17.1331C139.34 16.8301 141.151 16.9863 142.796 17.5822C144.441 18.178 145.847 19.1865 146.836 20.4801C147.824 21.7738 148.351 23.2944 148.349 24.8495C148.347 26.9312 147.399 28.9271 145.713 30.3991C144.026 31.8712 141.74 32.699 139.356 32.7011ZM139.356 18.2384C137.858 18.2384 136.394 18.6261 135.149 19.3525C133.903 20.079 132.933 21.1115 132.36 22.3195C131.786 23.5275 131.636 24.8568 131.929 26.1392C132.221 27.4216 132.942 28.5996 134.001 29.5242C135.06 30.4488 136.409 31.0784 137.878 31.3335C139.347 31.5886 140.87 31.4577 142.254 30.9573C143.637 30.4569 144.82 29.6096 145.652 28.5224C146.484 27.4352 146.928 26.157 146.928 24.8495C146.926 23.0967 146.127 21.4163 144.708 20.177C143.288 18.9376 141.363 18.2404 139.356 18.2384Z" fill="#60D290"/>
</svg>
