<svg width="192" height="173" viewBox="0 0 192 173" fill="none" xmlns="http://www.w3.org/2000/svg">
<path d="M159.181 147.087C165.46 153.984 176.072 159.577 176.072 159.577C175.64 157.218 174.778 154.959 173.529 152.911C171.634 150.103 153.618 137.785 153.618 137.785C156.576 138.957 159.595 139.967 162.664 140.809C165.646 141.449 187.153 146.022 187.153 146.022C185.93 145.494 184.769 144.832 183.693 144.048C181.754 142.671 174.789 140.153 165.095 136.675C155.4 133.197 142.305 126.315 142.305 126.315C142.305 126.315 146.824 126.122 150.232 126.114C153.64 126.107 190.218 135.565 190.218 135.565C187.837 134.295 185.37 133.193 182.835 132.266C178.592 130.709 176.869 130.434 172.596 128.877C167.361 126.855 161.959 125.295 156.452 124.215C150.091 123.046 129.606 116.544 128.987 116.357C138.942 125.295 146.094 131.923 146.094 131.923C146.094 131.923 152.872 140.198 159.181 147.087Z" fill="#5DB957"/>
<path d="M64.5568 38.0586C64.5568 38.0586 77.7262 31.8694 88.7404 31.43C99.7547 30.9906 135.482 28.6669 135.482 28.6669C135.482 28.6669 125.937 27.721 119.762 28.1977C113.588 28.6743 109.434 27.6614 104.848 27.3039C100.262 26.9464 89.1879 27.3784 84.8403 26.6932C80.4928 26.008 73.3861 29.7915 64.3107 31.5715C55.2353 33.3515 41.5067 39.6747 41.5067 39.6747C41.5067 39.6747 37.7781 34.6177 39.0533 33.5526C40.3284 32.4876 43.1994 31.1544 49.0906 29.0467C56.628 26.3184 64.3018 23.9816 72.0811 22.0458C82.1707 19.4986 125.363 17.6143 125.363 17.6143L98.0246 15.6406C98.0246 15.6406 86.1826 17.9197 80.1274 17.51C74.0722 17.1004 60.5076 19.1485 50.6417 21.3754C41.4768 23.4459 30.0897 29.7915 28.5386 30.7076C30.1568 31.9662 31.7229 33.1579 33.1994 34.2527C37.992 37.9373 42.5474 41.9199 46.8386 46.1767C49.54 44.2894 52.4168 42.6657 55.4292 41.3282C62.0214 38.2075 64.5568 38.0586 64.5568 38.0586Z" fill="#5DB957"/>
<path d="M157.145 119.91C164.379 120.655 192 120.856 192 120.856C192 120.856 174.61 117.251 171.977 116.849C169.345 116.447 163.864 115.94 153.864 115.635C143.864 115.33 138.092 113.185 131.768 111.122C127.423 109.625 123.21 107.769 119.173 105.573C119.173 105.573 127.1 105.379 131.485 106.057C135.87 106.735 141.03 107.003 157.257 108.82C173.484 110.638 191.374 108.753 191.374 108.753L185.93 106.824C183.208 105.864 181.321 106.467 177.585 106.243C173.849 106.02 165.042 106.087 158.592 104.903C152.141 103.719 148.719 103.726 135.676 102.229C122.633 100.732 109.061 97.9093 109.061 97.9093C112.835 97.6345 116.622 97.5649 120.404 97.7007C125.571 97.9689 125.34 98.2891 130.844 98.7881C136.347 99.2871 140.792 97.1049 150.061 96.3974C159.33 95.6898 187.071 91.5861 187.071 91.5861C187.071 91.5861 181.903 91.318 179.614 91.1392C177.324 90.9605 164.311 91.4446 159.658 92.5171C155.005 93.5895 134.393 94.4982 121.671 93.2618C114.52 92.5992 107.442 91.2981 100.523 89.3741C100.523 89.3741 108.636 90.2827 112.275 89.9476C115.914 89.6124 123.29 89.5156 132.693 87.9292C142.097 86.3428 179.561 80.891 179.561 80.891C179.561 80.891 162.507 80.891 158.868 81.2485C155.229 81.606 148.957 81.5017 131.276 84.4809C113.595 87.46 93.3714 82.3433 93.3714 82.3433C93.3714 82.3433 102.089 81.7326 106.6 81.539C113.448 81.3551 120.274 80.6805 127.026 79.5206C136.973 77.8374 173.797 71.9238 173.797 71.9238C173.797 71.9238 154.11 71.544 145.952 72.0653C137.794 72.5867 137.108 73.5549 122.268 76.6234C107.428 79.6919 85.4295 75.7297 85.4295 75.7297C85.4295 75.7297 93.0805 73.8752 95.1984 72.9516C97.3162 72.0281 106.384 70.2108 114.46 69.1383C122.536 68.0659 163.573 60.3276 163.573 60.3276C163.573 60.3276 149.144 60.7744 147.391 60.4989C145.639 60.2233 136.049 60.7074 129.322 61.2437C122.596 61.7799 110.478 65.839 100.523 67.5147C93.2868 68.6169 85.9947 69.3131 78.6807 69.6001C78.6807 69.6001 80.0081 68.9819 82.3571 67.7307C88.1608 64.7165 94.2013 62.1808 100.418 60.1488C109.307 57.2293 154.513 47.0556 154.513 47.0556C154.513 47.0556 119.3 50.7199 108.278 52.5818C97.2565 54.4438 88.7404 60.119 82.0737 62.6587C75.407 65.1984 71.7977 64.1483 71.7977 64.1483L63.386 58.1379C65.8951 57.7081 68.3503 57.0089 70.709 56.0525C73.1418 54.9762 75.4965 53.7319 77.756 52.3286C81.9022 49.9304 86.466 48.3068 90.1498 46.5491C93.8337 44.7914 100.008 44.3148 106.876 42.8848C113.744 41.4548 146.839 38.7065 146.839 38.7065C146.839 38.7065 138.815 38.3565 134.759 37.9022C130.702 37.4479 127.384 38.0065 122.864 38.2001C118.345 38.3937 111.067 39.0343 102.909 39.5556C94.7509 40.0769 95.3997 40.5313 84.2661 43.8232C73.1326 47.1151 60.0601 51.8817 55.5858 50.6454C53.0927 49.8971 50.6817 48.899 48.3896 47.6663C57.0847 56.1047 66.4659 65.6751 79.9335 75.2232C92.7375 84.3245 114.028 102.959 128.994 116.387C129.24 116.439 135.877 117.817 142.76 118.89C149.77 119.992 149.889 119.113 157.145 119.91Z" fill="#5DB957"/>
<path d="M0.320659 0L0 0.134061V6.94882L4.04925 4.7964C9.31402 2.00346 12.1701 1.96622 18.0986 0H0.320659Z" fill="#5DB957"/>
<path d="M25.6602 21.5987C27.6885 20.1091 28.3298 20.5858 29.8958 19.7516C31.4618 18.9175 41.1338 15.5883 44.6834 14.702C50.1638 13.4959 55.7016 12.5662 61.2756 11.9165C67.1146 11.2164 114.095 9.55555 114.095 9.55555C114.095 9.55555 94.9075 7.10522 91.7233 6.79241C88.5391 6.4796 80.9328 6.90413 77.756 6.59132C74.5792 6.27851 62.2152 7.21694 60.2391 7.26907C53.3481 7.64751 46.5825 9.26741 40.2688 12.0506C31.0144 16.1618 14.0046 18.1801 14.0046 18.1801L7.1067 12.8028C10.5629 12.5503 13.9983 12.0676 17.3901 11.3579C22.0434 10.2854 48.3076 4.16333 59.1503 1.19165C61.6953 0.579544 64.287 0.18094 66.8984 0L51.0071 0C45.0414 1.15441 38.0316 2.48012 31.1561 3.64198C17.7332 5.87633 4.76514 7.1648 0.246094 7.56699C6.21184 12.6092 17.3007 21.9115 26.8831 29.4189L22.2522 25.0247C23.2196 23.7269 24.3671 22.5733 25.6602 21.5987Z" fill="#5DB957"/>
<path d="M31.8347 122.144C32.0088 123.321 32.39 124.458 32.9607 125.503C32.9607 125.503 32.4685 124.043 31.8347 122.144Z" fill="#5DB957"/>
<path d="M143.178 129.905L129.919 117.869C133.648 123.582 147.384 144.272 152.067 148.852C157.518 154.185 165.833 163.003 165.833 163.003C165.833 163.003 159.77 152.375 155.393 146.856C151.015 141.337 143.178 129.905 143.178 129.905Z" fill="#5DB957"/>
<path d="M135.721 139.677C142.111 153.939 143.968 158.17 147.152 161.893C149.065 164.129 151.218 166.147 153.573 167.911C153.573 167.911 146.094 150.446 141.366 139.274C138.057 131.846 134.217 124.665 129.874 117.787L119.509 108.381C120.896 110.816 129.859 126.546 135.721 139.677Z" fill="#5DB957"/>
<path d="M69.747 77.2339C70.7985 73.793 72.2675 66.6356 72.3868 66.0622L36.8907 35.9059L0 6.62109V12.6613C0.783004 16.8618 1.42432 24.1235 0.469802 35.8315C0.313202 37.7679 0.156601 39.5554 0 41.3279V75.223C2.53544 82.9836 6.24912 91.9061 6.24912 91.9061C6.24912 91.9061 5.06342 73.078 4.60854 55.2628C4.15365 37.4476 5.0336 12.3038 5.0336 12.3038C5.0336 12.3038 9.91805 10.911 11.0366 39.4064C12.1552 67.9018 9.54519 81.1142 10.0672 85.8659C10.5892 90.6176 13.9226 103.681 13.9226 103.681C13.9226 103.681 13.1321 75.3794 15.7272 58.7856C18.3223 42.1919 13.9897 18.1801 13.9897 18.1801C13.9897 18.1801 23.863 27.5942 21.1187 55.3224C18.3745 83.0506 17.6437 97.0898 18.203 100.404C18.7623 103.718 21.3201 113.81 21.3201 113.81C21.3201 113.81 23.6542 80.4662 25.5259 69.6446C26.9502 61.3998 26.913 48.4555 26.3313 41.3428C29.3142 54.3318 32.7743 71.8789 32.0882 81.6132C30.9249 98.2814 28.5013 109.17 29.0606 112.514C29.8133 115.771 30.7393 118.986 31.8347 122.144C31.2978 119.426 31.0144 114.905 32.2821 107.993C34.6535 95.0938 40.5671 77.9116 38.3299 64.6545C36.0927 51.3974 28.3373 30.8116 28.3373 30.8116L40.224 42.1621C40.224 42.1621 43.095 49.0588 42.3866 65.0865C41.6782 81.1142 38.4268 90.4612 38.218 101.007C38.0092 111.553 39.9332 131.387 39.9332 131.387C39.9332 131.387 40.9474 108.783 42.5432 99.7114C44.139 90.64 48.2256 79.4384 49.7692 68.3859C51.3128 57.3333 46.3613 46.5265 46.3613 46.5265C46.3613 46.5265 57.9125 61.0721 56.7342 70.9032C55.556 80.7344 53.1324 91.6752 50.5298 104.895C48.8773 113.935 48.0462 123.106 48.0466 132.296C48.0093 133.726 50.9698 141.173 50.4627 139.84C49.9556 138.507 52.3419 110.555 55.3621 101.529C58.3823 92.5019 58.9714 84.1604 60.2987 76.8392C61.6261 69.5179 57.4874 53.453 57.4874 53.453C57.4874 53.453 68.2481 64.9897 67.562 65.9579C66.876 66.9261 66.6895 69.2275 63.0877 94.8331C59.4859 120.439 60.7611 131.581 61.5068 135.997C62.2525 140.414 65.5933 150.081 65.5933 150.081C65.5933 150.081 62.9237 129.227 65.0564 113.244C67.1892 97.2611 68.6508 80.8237 69.747 77.2339Z" fill="#5DB957"/>
<path d="M22.2522 25.0249C22.2522 25.0249 22.3193 25.2558 22.4312 25.6803L22.2522 25.0249Z" fill="#5DB957"/>
<path d="M72.4019 65.9952V66.0399L76.8762 69.8309C75.2281 62.7703 72.4019 65.9952 72.4019 65.9952Z" fill="#5DB957"/>
<path d="M76.8612 69.8306C77.4429 72.3777 77.8754 76.2431 77.9649 82.0971C78.2856 104.195 74.4451 121.883 74.6464 129.8C74.8478 137.717 78.8896 156.613 78.8896 156.613C78.8896 156.613 75.4369 132.78 79.1879 121.347C82.9388 109.915 84.4825 92.0549 84.4079 84.689L84.296 77.3231C84.296 77.3231 91.7532 89.4183 90.575 102.646C89.3967 115.873 84.6092 136.317 85.0716 142.484C85.5339 148.651 91.5146 162.131 91.5146 162.131C91.5146 162.131 90.3811 145.284 91.6861 131.148C92.9911 117.013 94.4975 107.382 94.5347 102.549C94.572 97.7152 92.9837 84.9198 92.9837 84.9198C92.9837 84.9198 97.182 87.899 98.6884 103.539C100.195 119.18 101.179 130.098 100.135 135.669C99.0911 141.24 99.3894 149.716 100.486 152.941C101.582 156.166 105.892 166.578 105.892 166.578C105.892 166.578 103.006 152.859 104.826 140.056C106.414 128.884 106.138 113.155 105.698 106.124C107.48 113.907 109.591 124.244 110.441 132.869C112.037 149.068 113.67 160.426 115.475 162.66C117.279 164.895 120.463 168.618 120.463 168.618C120.463 168.618 117.525 159.785 116.78 151.935C116.034 144.085 116.123 126.203 114.498 118.241C112.872 110.28 111.052 101.208 111.052 101.208C115.966 111.696 119.729 122.683 122.275 133.979C126.131 151.786 126.929 158.184 129.427 162.876C131.293 166.155 133.527 169.211 136.086 171.985C136.086 171.985 131.306 155.466 130.038 146.305C128.771 137.144 126.541 123.887 125.199 120.982C123.983 118.361 120.165 109.922 119.442 108.321L79.0462 71.6925L76.8612 69.8306Z" fill="#5DB957"/>
<g opacity="0.3">
<path d="M76.8612 69.8306C77.4429 72.3777 77.8754 76.2431 77.9649 82.0971C77.9649 84.0782 77.9649 86.0296 77.9649 87.9362C79.9709 90.1706 81.9619 92.3379 83.9306 94.4307C84.2513 90.4908 84.3855 87.0648 84.3557 84.7113L84.2438 77.3454C84.2438 77.3454 91.0746 88.4427 90.6197 101.029C91.8576 102.181 93.1228 103.313 94.4154 104.426C94.4154 103.763 94.4825 103.145 94.4825 102.601C94.4825 97.7673 92.9314 84.972 92.9314 84.972C92.9314 84.972 97.1298 87.9511 98.6362 103.592C98.7853 105.193 98.9345 106.727 99.0761 108.232C101.261 109.922 103.55 111.568 105.937 113.169C105.877 110.376 105.773 107.956 105.661 106.109C106.22 108.567 106.817 111.285 107.398 114.123C109.64 115.568 112.007 116.98 114.498 118.361V118.249C112.872 110.287 111.052 101.216 111.052 101.216C114.004 107.497 116.537 113.966 118.636 120.58C121.013 121.796 123.521 122.983 126.161 124.14C125.926 123.073 125.604 122.027 125.199 121.012C123.983 118.39 120.165 109.952 119.442 108.351L79.0462 71.6925L76.8612 69.8306Z" fill="black"/>
<path d="M72.4019 65.9947V66.0394L76.8762 69.8304C75.2281 62.7698 72.4019 65.9947 72.4019 65.9947Z" fill="black"/>
<path d="M119.442 108.343L119.509 108.403L119.315 108.075L119.442 108.343Z" fill="black"/>
<path d="M0 10.9556V12.6611C0.231173 13.8528 0.447431 15.3423 0.611489 17.1298L4.78751 20.9133C4.86208 17.9342 4.92919 15.5434 4.98139 14.0464L0 10.9556Z" fill="black"/>
<path d="M128.689 125.22C130.975 126.213 133.372 127.166 135.877 128.08C133.409 123.552 131.097 119.761 129.874 117.809L119.509 108.403C120.396 109.952 124.386 116.931 128.689 125.22Z" fill="black"/>
<path d="M24.9071 26.3947L15.9734 20.8535C18.1765 24.6393 19.6913 28.7846 20.4477 33.0977C23.7885 35.5034 27.8527 38.5272 32.3046 42.0351C30.1569 35.6151 28.3374 30.8113 28.3374 30.8113L40.2241 42.1617C40.2241 42.1617 41.2458 44.6344 41.9244 50.0564C44.3927 52.1865 46.8983 54.4283 49.3816 56.7595C48.7615 53.2421 47.7432 49.8065 46.3465 46.5187C46.3465 46.5187 52.7298 54.54 55.5188 62.7103C57.0774 64.2818 58.6285 65.8905 60.1423 67.5216C59.5194 62.7828 58.628 58.0832 57.4726 53.4452C57.4726 53.4452 68.2482 64.9893 67.5622 65.9575C67.1371 66.5459 66.9059 67.6333 65.9738 74.1501L69.501 78.2017C69.5831 77.8145 69.6651 77.457 69.7471 77.2112C70.7986 73.7703 72.2676 66.6129 72.387 66.0394L36.8908 35.9056L24.9071 26.3947ZM22.2523 25.0243C22.2523 25.0243 22.3194 25.2552 22.4313 25.6797L22.2523 25.0243Z" fill="black"/>
<path d="M14.2582 19.7961L7.88232 15.8413C8.93337 19.013 9.63599 22.2894 9.97779 25.6128L11.3648 26.8715C11.3648 26.8715 12.9234 27.8695 15.5707 29.6943C15.1009 25.3224 14.5714 21.74 14.2582 19.7961Z" fill="black"/>
<path d="M129.934 117.869C131.299 119.947 133.968 123.984 137.048 128.52L137.689 128.758C139.926 129.57 142.022 130.344 144.028 131.096L143.193 129.905L129.934 117.869Z" fill="black"/>
<path d="M129.874 117.809L129.934 117.869L128.972 116.379C128.972 116.379 129.308 116.931 129.874 117.809Z" fill="black"/>
</g>
<path d="M151.381 135.282C143.051 128.11 143.178 123.992 78.7031 69.5926C49.0086 44.5605 22.4387 22.8873 0 5.07959V9.81641C13.6988 20.6009 28.2702 32.4578 43.5201 45.4319C134.192 122.346 155.378 141.181 155.378 141.181C154.478 138.955 153.116 136.944 151.381 135.282Z" fill="#5DB957"/>
<g opacity="0.3">
<path d="M100.912 153.129C102.03 156.346 106.333 166.699 106.333 166.699C105.33 161.41 104.778 156.046 104.685 150.663C103.452 147.161 101.887 143.784 100.01 140.579C99.7112 145.435 100.084 150.73 100.912 153.129Z" fill="black"/>
<path d="M155.155 151.579C160.301 156.793 166.341 163.131 166.341 163.131C166.341 163.131 162.12 155.743 158.205 150.082C157.512 149.446 156.708 148.942 155.834 148.593C155.566 149.554 155.372 150.566 155.155 151.579Z" fill="black"/>
<path d="M39.5543 93.6206C40.218 99.2363 41.344 104.993 41.7392 110.602C40.8593 108.762 39.8675 106.498 38.6669 104.271C38.8086 115.175 40.3895 131.508 40.3895 131.508C40.3895 131.508 41.4037 108.904 42.9995 99.8321C43.1486 98.983 43.3425 98.1042 43.5289 97.2254C42.6148 95.6377 41.2245 94.3768 39.5543 93.6206Z" fill="black"/>
<path d="M61.9257 136.118C62.6715 140.542 66.0123 150.202 66.0123 150.202C66.0123 150.202 63.3426 129.348 65.4754 113.365C65.7662 111.22 66.0421 109.067 66.3031 106.937C65.5847 103.423 64.5719 99.9746 63.2755 96.6294C59.9272 121.043 61.1949 131.798 61.9257 136.118Z" fill="black"/>
<path d="M120.905 168.784C119.226 163.521 118.018 158.12 117.295 152.645C116.696 151.902 116.024 151.221 115.289 150.611C115.379 154 115.446 157.806 115.289 161.582C115.445 162.021 115.664 162.435 115.938 162.811C117.72 165.068 120.905 168.784 120.905 168.784Z" fill="black"/>
<path d="M14.7517 74.0326L14.6249 73.9135C12.7084 76.3117 12.5071 79.7004 11.9702 82.7615C11.642 76.5798 12.0671 68.8564 11.6793 61.3267C11.3214 75.2168 10.1879 82.6796 10.5309 85.9864C11.0455 90.7307 14.3863 103.802 14.3863 103.802C14.3863 103.802 13.9612 88.6676 14.7517 74.0326Z" fill="black"/>
<path d="M151.561 166.006C153.052 167.301 154.052 168.031 154.052 168.031C154.052 168.031 153.351 166.408 152.255 163.846C152.038 164.568 151.837 165.291 151.561 166.006Z" fill="black"/>
<path d="M134.492 169.752C135.67 171.197 136.542 172.12 136.542 172.12C136.542 172.12 135.908 169.886 135.051 166.698C134.864 167.696 134.685 168.731 134.492 169.752Z" fill="black"/>
<path d="M5.01998 53C4.84101 54.9066 4.67695 56.7984 4.34138 58.5784C3.28992 64.1717 0.590417 71.1727 1.05276 77.1235C3.536 84.4 6.7053 92.0191 6.7053 92.0191C6.7053 92.0191 5.51961 73.1985 5.06472 55.3833C5.04981 54.6087 5.0349 53.8193 5.01998 53Z" fill="black"/>
<path d="M32.3058 122.265C32.4841 123.427 32.8599 124.55 33.417 125.586C33.417 125.586 32.9323 124.179 32.3058 122.265Z" fill="black"/>
<path d="M18.6592 100.524C19.2185 103.831 21.7763 113.931 21.7763 113.931C21.7763 113.931 22.7308 100.346 23.9016 87.7068C22.5799 84.8579 21.0857 82.0922 19.4273 79.4248C18.4952 91.5648 18.2938 98.3572 18.6592 100.524Z" fill="black"/>
<path d="M32.7384 108.114C33.2679 105.135 34.0136 101.947 34.7593 98.6476C33.7397 97.5301 32.5077 96.6263 31.1351 95.9888C30.1284 104.628 29.1441 110.348 29.5393 112.583C30.2957 115.857 31.2267 119.089 32.3283 122.265C31.7764 119.554 31.4632 115.033 32.7384 108.114Z" fill="black"/>
<path d="M78.9506 124.141C78.2048 121.118 77.4591 117.215 76.5866 113.327C75.7663 120.566 75.0057 126.286 75.0952 129.921C75.2891 137.845 79.3383 156.733 79.3383 156.733C79.3383 156.733 76.3704 136.229 78.9506 124.141Z" fill="black"/>
<path d="M85.2315 138C85.029 139.528 84.9592 141.07 85.0227 142.61C85.4925 148.777 91.4657 162.258 91.4657 162.258C91.4657 162.258 91.1898 158.109 91.063 152.203C88.9303 147.63 87.0287 142.826 85.2315 138Z" fill="black"/>
</g>
</svg>
